# xmcd
#
# Track frame offsets: 
#        183
#        20945
#        33603
#        45568
#        62230
#        86853
#        92170
#        109125
#        124705
#        143640
#        163025
#        180968
#        204713
#        226358
#        235835
#        251148
#        267485
#        276755
#        288238
#        300255
#        318778
#
# Disc length: 4401 seconds
#
# Revision: 2
# Processed by: cddbd v1.5.2PL0 Copyright (c) Steve Scherf et al.
# Submitted via: ExactAudioCopy v0.95b4
#
DISCID=2d112f15
DTITLE=Various Artist - Transcore "The Ultimate"
DYEAR=1997
DGENRE=Techno
TTITLE0=Guillaume La Tortue - Permuted Silence
TTITLE1=Regis - Keep Planing
TTITLE2=Oriel Track - The Drive
TTITLE3=RND Technologies - Breakdown
TTITLE4=Brother's Yard - Glavine
TTITLE5=Chris McCormack - I Flight Decimator
TTITLE6=Argonic - Shape Two
TTITLE7=Inevitech - Mind Zip
TTITLE8=Absence - Clox
TTITLE9=Jon Templeman and DJ Tripspin - Rumble 2
TTITLE10=Fluokid - Harshed
TTITLE11=Torgull - X Play
TTITLE12=James Moriarti - Musik
TTITLE13=David Caretta - Moon Walking
TTITLE14=Throb - Cpjavelbaskagge
TTITLE15=Virtualian - The Perfect Pitch
TTITLE16=Sir Real - Open Doors
TTITLE17=Program 2 - Twister
TTITLE18=Virtualian - No Disco
TTITLE19=Ubald - Plasmotron
TTITLE20=Virtualian - Brocoli
EXTD=Shitty Techno !!! Bad Transcore but cool mix !!!
EXTT0=
EXTT1=
EXTT2=
EXTT3=
EXTT4=
EXTT5=
EXTT6=
EXTT7=
EXTT8=
EXTT9=
EXTT10=
EXTT11=
EXTT12=
EXTT13=
EXTT14=
EXTT15=
EXTT16=
EXTT17=
EXTT18=
EXTT19=
EXTT20=
PLAYORDER=
